<?xml version="1.0" encoding="utf-8"?>
<!-- Generator: Adobe Illustrator 26.0.1, SVG Export Plug-In . SVG Version: 6.00 Build 0)  -->
<svg version="1.1" id="Layer_1" xmlns="http://www.w3.org/2000/svg" xmlns:xlink="http://www.w3.org/1999/xlink" x="0px" y="0px"
	 viewBox="0 0 205.4 137.5" style="enable-background:new 0 0 205.4 137.5;" xml:space="preserve">
<style type="text/css">
	.st0{fill:#EA7024;}
</style>
<g>
	<path class="st0" d="M60.5,17.6c-8-5.7-19.9-6.3-26.7-6.3H8v118.9H36c22.4-0.6,36.4-6.9,45.4-21.8L67.7,48.1L60.5,17.6z
		 M40.1,101.5V40.9c14.7,0,17.2,18,17.2,30.9C57.3,83,54.8,101.3,40.1,101.5z"/>
	<path class="st0" d="M89.5,129.8h31.2l6.8-48.2c1.4-9.6,1.7-18,2.5-26.2h0.3c1.1,8.2,1.6,16.6,3.3,26.2l8.7,48.2h31.1l24-118.9H166
		l-7.1,47.9c-1.4,9.3-1.8,18.4-2.7,25.8h-0.3c-1.3-8.7-2.2-17.2-3.6-25.8L144.1,11h-27.6l-8.4,47.9c-1.6,8.8-1.7,17.5-2.7,26.3h-0.3
		c-1.1-8.8-2-17.5-3.3-26.3L94.7,11H63l0.5,2.3l7.2,32.2l15.7,70.5L89.5,129.8z"/>
</g>
</svg>
